# xmcd CD database file
#
# Track frame offsets:
#	150
#	32458
#	60598
#	83051
#	106454
#	141723
#	164288
#	189369
#	212498
#	234149
#	256894
#
# Disc length: 3753 seconds
#
# Revision: 0
# Processed by: cddbd v1.5.2PL0 Copyright (c) Steve Scherf et al.
# Submitted via: CDex 1.70beta2
#
DISCID=8a0ea70b
DTITLE=Jonathan Cainer - Cancer
DYEAR=1998
DGENRE=New Age
TTITLE0=Medwyn Goodall - Full moon rising
TTITLE1=Medwyn Goodall - Wisdom of the ancients
TTITLE2=Phil Thornton - Laughing wolf madrigal
TTITLE3=Runestone - The view beyond
TTITLE4=Medwyn Goodall - Caliburn
TTITLE5=Helen O'Hara - Love and respect
TTITLE6=Medwyn Goodall - A maidens's prayer
TTITLE7=Asha - On the way to the wedding
TTITLE8=Medwyn Goodall - Full moon magic
TTITLE9=Phil Thornton - No wall to contain my spirit
TTITLE10=Medwyn Goodall - Talisman
EXTD=YEAR: 1998
EXTT0=
EXTT1=
EXTT2=
EXTT3=
EXTT4=
EXTT5=
EXTT6=
EXTT7=
EXTT8=
EXTT9=
EXTT10=
PLAYORDER=
